<?xml version="1.0" encoding="UTF-8" standalone="no"?>
<!-- Svg Vector Icons : http://www.onlinewebfonts.com/icon -->

<svg
   xmlns:dc="http://purl.org/dc/elements/1.1/"
   xmlns:cc="http://creativecommons.org/ns#"
   xmlns:rdf="http://www.w3.org/1999/02/22-rdf-syntax-ns#"
   xmlns:svg="http://www.w3.org/2000/svg"
   xmlns="http://www.w3.org/2000/svg"
   xmlns:sodipodi="http://sodipodi.sourceforge.net/DTD/sodipodi-0.dtd"
   xmlns:inkscape="http://www.inkscape.org/namespaces/inkscape"
   version="1.1"
   x="0px"
   y="0px"
   viewBox="0 0 1000 1000"
   enable-background="new 0 0 1000 1000"
   xml:space="preserve"
   id="svg8"
   sodipodi:docname="history-dark.svg"
   inkscape:version="0.92.5 (2060ec1f9f, 2020-04-08)"><defs
   id="defs12" /><sodipodi:namedview
   pagecolor="#ffffff"
   bordercolor="#666666"
   borderopacity="1"
   objecttolerance="10"
   gridtolerance="10"
   guidetolerance="10"
   inkscape:pageopacity="0"
   inkscape:pageshadow="2"
   inkscape:window-width="697"
   inkscape:window-height="480"
   id="namedview10"
   showgrid="false"
   inkscape:zoom="0.236"
   inkscape:cx="500"
   inkscape:cy="500"
   inkscape:window-x="72"
   inkscape:window-y="27"
   inkscape:window-maximized="0"
   inkscape:current-layer="g6" />
<metadata
   id="metadata2"> Svg Vector Icons : http://www.onlinewebfonts.com/icon <rdf:RDF><cc:Work
     rdf:about=""><dc:format>image/svg+xml</dc:format><dc:type
       rdf:resource="http://purl.org/dc/dcmitype/StillImage" /><dc:title></dc:title></cc:Work></rdf:RDF></metadata>
<g
   id="g6"><path
     d="M540.8,950.1c-149.3,0-295.4-74-381.1-209.2c-7-11.1-3.7-25.8,7.4-32.8c11.1-6.9,25.8-3.7,32.8,7.3c57.5,90.9,146.9,153.9,251.9,177.4c105,23.6,212.7,4.9,303.6-52.6c90.9-57.5,153.9-147,177.4-251.9c23.6-104.9,4.9-212.7-52.6-303.6c-57.5-90.8-147-153.9-251.9-177.4c-104.9-23.6-212.7-4.8-303.6,52.7c-118.3,74.9-188.3,203.2-187.2,343.3c0.1,13.1-10.5,23.8-23.6,23.9c-0.1,0-0.1,0-0.2,0c-13,0-23.6-10.5-23.7-23.6C88.8,347.1,167,203.6,299.3,119.8C400.9,55.6,521.4,34.7,638.7,61c117.3,26.4,217.3,96.8,281.6,198.4c132.8,209.7,70.2,488.3-139.5,621C706.3,927.6,623,950.1,540.8,950.1z M695.6,724.7c-8.8,0-17.6-3.3-24.3-10.1L502.1,545.4c-6.4-6.4-10-15.2-10-24.2V227.5c0-19,15.4-34.3,34.3-34.3s34.3,15.4,34.3,34.3V507l159.2,159.1c13.4,13.4,13.4,35.1,0,48.5C713.2,721.3,704.4,724.7,695.6,724.7z M113.6,527.3c-1.1,0-2.4-0.1-3.5-0.3c-6.8-1-12.9-4.9-16.5-10.7L13.7,390c-7-11.1-3.7-25.7,7.4-32.8c11.1-7,25.8-3.7,32.8,7.4l65.3,103.1l83.1-70.8c9.9-8.5,25-7.3,33.5,2.7c8.5,10,7.3,24.9-2.7,33.5l-103.9,88.6C124.8,525.3,119.3,527.3,113.6,527.3z"
     id="path4"
     style="fill:#ffffff" /></g>
</svg>