<?xml version="1.0" encoding="UTF-8" standalone="no"?>
<svg
   xmlns:dc="http://purl.org/dc/elements/1.1/"
   xmlns:cc="http://creativecommons.org/ns#"
   xmlns:rdf="http://www.w3.org/1999/02/22-rdf-syntax-ns#"
   xmlns:svg="http://www.w3.org/2000/svg"
   xmlns="http://www.w3.org/2000/svg"
   xmlns:sodipodi="http://sodipodi.sourceforge.net/DTD/sodipodi-0.dtd"
   xmlns:inkscape="http://www.inkscape.org/namespaces/inkscape"
   height="512pt"
   viewBox="0 0 512 512"
   width="512pt"
   version="1.1"
   id="svg6"
   sodipodi:docname="light-mode.svg"
   inkscape:version="0.92.5 (2060ec1f9f, 2020-04-08)">
  <metadata
     id="metadata12">
    <rdf:RDF>
      <cc:Work
         rdf:about="">
        <dc:format>image/svg+xml</dc:format>
        <dc:type
           rdf:resource="http://purl.org/dc/dcmitype/StillImage" />
      </cc:Work>
    </rdf:RDF>
  </metadata>
  <defs
     id="defs10" />
  <sodipodi:namedview
     pagecolor="#ffffff"
     bordercolor="#666666"
     borderopacity="1"
     objecttolerance="10"
     gridtolerance="10"
     guidetolerance="10"
     inkscape:pageopacity="0"
     inkscape:pageshadow="2"
     inkscape:window-width="1689"
     inkscape:window-height="1026"
     id="namedview8"
     showgrid="false"
     inkscape:zoom="0.34570313"
     inkscape:cx="-172.11299"
     inkscape:cy="341.33333"
     inkscape:window-x="1364"
     inkscape:window-y="948"
     inkscape:window-maximized="0"
     inkscape:current-layer="svg6" />
  <path
     d="m256 127.417969c-70.59375 0-128 57.410156-128 128 0 70.59375 57.40625 128 128 128s128-57.40625 128-128c0-70.589844-57.40625-128-128-128zm0 224c-52.929688 0-96-43.070313-96-96 0-52.925781 43.070312-96 96-96s96 43.074219 96 96c0 52.929687-43.070312 96-96 96zm0 0"
     id="path2"
     style="fill:#b8babe;fill-opacity:1;opacity:1" />
  <path
     d="m454.230469 173.328125v-57.257813c0-32.46875-26.410157-58.882812-58.882813-58.882812h-57.257812l-40.53125-40.53125c-22.210938-22.207031-60.886719-22.207031-83.09375 0l-40.535156 40.53125h-57.277344c-32.472656 0-58.882813 26.414062-58.882813 58.882812v57.257813l-40.53125 40.535156c-11.117187 11.113281-17.238281 25.875-17.238281 41.554688 0 15.679687 6.121094 30.445312 17.238281 41.535156l40.53125 40.535156v57.257813c0 32.46875 26.410157 58.878906 58.882813 58.878906h57.257812l40.53125 40.535156c11.117188 11.136719 25.878906 17.257813 41.558594 17.257813s30.441406-6.121094 41.535156-17.238281l40.535156-40.53125h57.257813c32.46875 0 58.878906-26.410157 58.878906-58.878907v-57.261719l40.535157-40.53125c11.136718-11.113281 17.257812-25.878906 17.257812-41.558593 0-15.679688-6.121094-30.441407-17.238281-41.535157zm17.917969 101.011719-45.226563 45.226562c-3.007813 3.007813-4.691406 7.085938-4.691406 11.308594v63.894531c0 14.824219-12.054688 26.878907-26.882813 26.878907h-63.890625c-4.246093 0-8.320312 1.683593-11.308593 4.691406l-45.226563 45.226562c-10.429687 10.433594-27.390625 10.433594-37.824219 0l-45.226562-45.226562c-3.007813-3.007813-7.082032-4.691406-11.304688-4.691406h-63.914062c-14.828125 0-26.882813-12.054688-26.882813-26.878907v-63.894531c0-4.246094-1.683593-8.320312-4.691406-11.308594l-45.226563-45.226562c-10.433593-10.429688-10.433593-27.410156 0-37.824219l45.226563-45.226563c3.007813-3.007812 4.691406-7.082031 4.691406-11.304687v-63.914063c0-14.828124 12.054688-26.882812 26.882813-26.882812h63.890625c4.246093 0 8.320312-1.683594 11.308593-4.691406l45.226563-45.226563c10.429687-10.433593 27.390625-10.433593 37.824219 0l45.226562 45.226563c3.007813 3.007812 7.082032 4.691406 11.304688 4.691406h63.894531c14.828125 0 26.878906 12.054688 26.878906 26.882812v63.890626c0 4.246093 1.6875 8.320312 4.695313 11.308593l45.226562 45.226563c10.453125 10.433594 10.453125 27.414062.019532 37.84375zm0 0"
     id="path4"
     style="fill:#b8babe;fill-opacity:1;opacity:1" />
</svg>
