<?xml version="1.0" encoding="UTF-8" standalone="no"?>
<svg
   xmlns:dc="http://purl.org/dc/elements/1.1/"
   xmlns:cc="http://creativecommons.org/ns#"
   xmlns:rdf="http://www.w3.org/1999/02/22-rdf-syntax-ns#"
   xmlns:svg="http://www.w3.org/2000/svg"
   xmlns="http://www.w3.org/2000/svg"
   xmlns:sodipodi="http://sodipodi.sourceforge.net/DTD/sodipodi-0.dtd"
   xmlns:inkscape="http://www.inkscape.org/namespaces/inkscape"
   height="512pt"
   viewBox="0 0 512 512"
   width="512pt"
   version="1.1"
   id="svg12"
   sodipodi:docname="login.svg"
   inkscape:version="0.92.5 (2060ec1f9f, 2020-04-08)">
  <metadata
     id="metadata18">
    <rdf:RDF>
      <cc:Work
         rdf:about="">
        <dc:format>image/svg+xml</dc:format>
        <dc:type
           rdf:resource="http://purl.org/dc/dcmitype/StillImage" />
      </cc:Work>
    </rdf:RDF>
  </metadata>
  <defs
     id="defs16" />
  <sodipodi:namedview
     pagecolor="#ffffff"
     bordercolor="#666666"
     borderopacity="1"
     objecttolerance="10"
     gridtolerance="10"
     guidetolerance="10"
     inkscape:pageopacity="0"
     inkscape:pageshadow="2"
     inkscape:window-width="1464"
     inkscape:window-height="865"
     id="namedview14"
     showgrid="false"
     inkscape:zoom="0.34570313"
     inkscape:cx="341.33333"
     inkscape:cy="341.33333"
     inkscape:window-x="72"
     inkscape:window-y="27"
     inkscape:window-maximized="0"
     inkscape:current-layer="svg12" />
  <path
     d="m218.667969 240h-202.667969c-8.832031 0-16-7.167969-16-16s7.167969-16 16-16h202.667969c8.832031 0 16 7.167969 16 16s-7.167969 16-16 16zm0 0"
     id="path2"
     style="fill:#000000" />
  <path
     d="m138.667969 320c-4.097657 0-8.191407-1.558594-11.308594-4.691406-6.25-6.253906-6.25-16.386719 0-22.636719l68.695313-68.691406-68.695313-68.671875c-6.25-6.253906-6.25-16.386719 0-22.636719s16.382813-6.25 22.636719 0l80 80c6.25 6.25 6.25 16.382813 0 22.636719l-80 80c-3.136719 3.132812-7.234375 4.691406-11.328125 4.691406zm0 0"
     id="path4"
     style="fill:#000000" />
  <path
     d="m341.332031 512c-23.53125 0-42.664062-19.136719-42.664062-42.667969v-384c0-18.238281 11.605469-34.515625 28.882812-40.511719l128.171875-42.730468c28.671875-8.789063 56.277344 12.480468 56.277344 40.578125v384c0 18.21875-11.605469 34.472656-28.863281 40.488281l-128.214844 42.753906c-4.671875 1.449219-9 2.089844-13.589844 2.089844zm128-480c-1.386719 0-2.558593.171875-3.816406.554688l-127.636719 42.558593c-4.183594 1.453125-7.210937 5.675781-7.210937 10.21875v384c0 7.277344 7.890625 12.183594 14.484375 10.113281l127.636718-42.558593c4.160157-1.453125 7.210938-5.675781 7.210938-10.21875v-384c0-5.867188-4.777344-10.667969-10.667969-10.667969zm0 0"
     id="path6"
     style="fill:#000000" />
  <path
     d="m186.667969 106.667969c-8.832031 0-16-7.167969-16-16v-32c0-32.363281 26.300781-58.667969 58.664062-58.667969h240c8.832031 0 16 7.167969 16 16s-7.167969 16-16 16h-240c-14.699219 0-26.664062 11.96875-26.664062 26.667969v32c0 8.832031-7.167969 16-16 16zm0 0"
     id="path8"
     style="fill:#000000" />
  <path
     d="m314.667969 448h-85.335938c-32.363281 0-58.664062-26.304688-58.664062-58.667969v-32c0-8.832031 7.167969-16 16-16s16 7.167969 16 16v32c0 14.699219 11.964843 26.667969 26.664062 26.667969h85.335938c8.832031 0 16 7.167969 16 16s-7.167969 16-16 16zm0 0"
     id="path10"
     style="fill:#000000" />
</svg>
