<?xml version="1.0" encoding="UTF-8" standalone="no"?>
<svg
   xmlns:dc="http://purl.org/dc/elements/1.1/"
   xmlns:cc="http://creativecommons.org/ns#"
   xmlns:rdf="http://www.w3.org/1999/02/22-rdf-syntax-ns#"
   xmlns:svg="http://www.w3.org/2000/svg"
   xmlns="http://www.w3.org/2000/svg"
   xmlns:sodipodi="http://sodipodi.sourceforge.net/DTD/sodipodi-0.dtd"
   xmlns:inkscape="http://www.inkscape.org/namespaces/inkscape"
   height="512pt"
   viewBox="0 0 512 512"
   width="512pt"
   version="1.1"
   id="svg12"
   sodipodi:docname="login-light.svg"
   inkscape:version="0.92.5 (2060ec1f9f, 2020-04-08)">
  <metadata
     id="metadata18">
    <rdf:RDF>
      <cc:Work
         rdf:about="">
        <dc:format>image/svg+xml</dc:format>
        <dc:type
           rdf:resource="http://purl.org/dc/dcmitype/StillImage" />
        <dc:title></dc:title>
      </cc:Work>
    </rdf:RDF>
  </metadata>
  <defs
     id="defs16" />
  <sodipodi:namedview
     pagecolor="#ffffff"
     bordercolor="#666666"
     borderopacity="1"
     objecttolerance="10"
     gridtolerance="10"
     guidetolerance="10"
     inkscape:pageopacity="0"
     inkscape:pageshadow="2"
     inkscape:window-width="1464"
     inkscape:window-height="865"
     id="namedview14"
     showgrid="false"
     inkscape:zoom="0.34570312"
     inkscape:cx="-108.2692"
     inkscape:cy="359.33445"
     inkscape:window-x="1437"
     inkscape:window-y="1016"
     inkscape:window-maximized="0"
     inkscape:current-layer="svg12" />
  <path
     d="m218.667969 240h-202.667969c-8.832031 0-16-7.167969-16-16s7.167969-16 16-16h202.667969c8.832031 0 16 7.167969 16 16s-7.167969 16-16 16zm0 0"
     id="path2"
     style="fill:#b8babe;fill-opacity:1;opacity:1" />
  <path
     d="m 138.66797,320 c -4.09766,0 -8.19141,-1.55859 -11.3086,-4.69141 -6.25,-6.2539 -6.25,-16.38672 0,-22.63672 l 68.69532,-68.6914 -16.14987,-16.14435 -52.54545,-52.52753 c -6.25,-6.2539 -6.25,-16.38672 0,-22.63672 6.25,-6.24999 16.38282,-6.24999 22.63672,0 l 80,80 c 6.25,6.25 6.25,16.38282 0,22.63672 l -80,80 C 146.85937,318.44141 142.76172,320 138.66797,320 Z"
     id="path4"
     style="opacity:1;fill:#b8babe;fill-opacity:1"
     inkscape:connector-curvature="0"
     sodipodi:nodetypes="scccccscsccs" />
  <path
     d="m341.332031 512c-23.53125 0-42.664062-19.136719-42.664062-42.667969v-384c0-18.238281 11.605469-34.515625 28.882812-40.511719l128.171875-42.730468c28.671875-8.789063 56.277344 12.480468 56.277344 40.578125v384c0 18.21875-11.605469 34.472656-28.863281 40.488281l-128.214844 42.753906c-4.671875 1.449219-9 2.089844-13.589844 2.089844zm128-480c-1.386719 0-2.558593.171875-3.816406.554688l-127.636719 42.558593c-4.183594 1.453125-7.210937 5.675781-7.210937 10.21875v384c0 7.277344 7.890625 12.183594 14.484375 10.113281l127.636718-42.558593c4.160157-1.453125 7.210938-5.675781 7.210938-10.21875v-384c0-5.867188-4.777344-10.667969-10.667969-10.667969zm0 0"
     id="path6"
     style="fill:#b8babe;fill-opacity:1;opacity:1" />
  <path
     d="m186.667969 106.667969c-8.832031 0-16-7.167969-16-16v-32c0-32.363281 26.300781-58.667969 58.664062-58.667969h240c8.832031 0 16 7.167969 16 16s-7.167969 16-16 16h-240c-14.699219 0-26.664062 11.96875-26.664062 26.667969v32c0 8.832031-7.167969 16-16 16zm0 0"
     id="path8"
     style="fill:#b8babe;fill-opacity:1;opacity:1" />
  <path
     d="m314.667969 448h-85.335938c-32.363281 0-58.664062-26.304688-58.664062-58.667969v-32c0-8.832031 7.167969-16 16-16s16 7.167969 16 16v32c0 14.699219 11.964843 26.667969 26.664062 26.667969h85.335938c8.832031 0 16 7.167969 16 16s-7.167969 16-16 16zm0 0"
     id="path10"
     style="fill:#b8babe;fill-opacity:1;opacity:1" />
  <path
     style="fill:#b8babe;stroke-width:2.89265537;fill-opacity:1;opacity:1"
     d="m 432.74124,676.12455 c -23.031,-12.14163 -33.10583,-30.13227 -33.202,-59.28888 l -0.0635,-19.25921 -55.68362,-1.09374 c -62.15965,-1.22096 -68.11315,-2.65361 -88.83917,-21.37835 -20.29277,-18.33327 -24.31929,-29.22574 -25.59422,-69.23695 -0.99058,-31.08713 -0.51334,-35.50413 4.50575,-41.70242 7.52933,-9.29833 22.71623,-9.47224 30.10722,-0.34472 4.39843,5.43183 5.33644,11.73463 5.34536,35.91712 0.009,24.31326 1.00922,30.96686 5.84865,38.90448 9.47923,15.54779 19.35862,17.90501 75.04198,17.90501 h 49.26805 l 0.0635,-226.35028 c 0.0601,-214.14846 0.3523,-226.97402 5.42055,-237.920905 8.82149,-19.053522 19.51587,-26.559318 55.45337,-38.919672 l 33.07385,-11.375425 -101.91374,0.559978 -101.91373,0.559977 -9.4535,9.456224 c -9.34025,9.342947 -9.47082,9.850565 -10.89982,42.374586 -1.18589,26.990717 -2.43861,34.012727 -6.95681,38.995757 -7.09009,7.81953 -20.22639,7.82075 -28.04453,0.003 -5.63132,-5.63131 -6.00086,-8.64047 -5.06215,-41.220335 0.94976,-32.963252 1.56659,-36.133434 9.93399,-51.055159 9.69503,-17.289329 28.64123,-32.4190411 46.97253,-37.5104796 6.69157,-1.8585533 73.40558,-2.9368511 179.85753,-2.9070353 158.55937,0.044411 169.94929,0.3848912 180.79096,5.4044192 13.46745,6.2352267 25.81475,18.5622447 30.18885,30.1392607 2.09356,5.541037 3.07669,94.290929 3.07669,277.740039 0,257.0621 -0.24964,270.06218 -5.36666,279.60364 -10.19262,19.00523 -20.51306,23.9309 -117.57189,56.11386 -95.77231,31.75641 -108.30263,34.3642 -124.38349,25.88661 z m 116.61544,-64.92027 c 77.59354,-25.86407 88.00198,-30.04908 90.39626,-36.3465 1.60551,-4.22285 2.70582,-111.46752 2.70582,-263.73126 0,-278.622988 0.52311,-269.472284 -15.40469,-269.472284 -8.14025,0 -177.54761,56.43463 -183.00609,60.964764 -3.45028,2.86348 -4.0751,43.65631 -4.0751,266.05288 0,285.56938 -0.78203,271.76202 15.39231,271.76202 3.4656,0 45.76178,-13.15334 93.99149,-29.22962 z"
     id="path819"
     inkscape:connector-curvature="0"
     transform="scale(0.74999998)" />
</svg>
