<?xml version="1.0" standalone="no"?>
<!DOCTYPE svg PUBLIC "-//W3C//DTD SVG 20010904//EN"
 "http://www.w3.org/TR/2001/REC-SVG-20010904/DTD/svg10.dtd">
<svg version="1.0" xmlns="http://www.w3.org/2000/svg"
 width="700.000000pt" height="700.000000pt" viewBox="0 0 700.000000 700.000000"
 preserveAspectRatio="xMidYMid meet">
<metadata>
Created by potrace 1.14, written by Peter Selinger 2001-2017
</metadata>
<g transform="translate(0.000000,700.000000) scale(0.100000,-0.100000)"
fill="#000000" stroke="none">
<path d="M1995 6808 c-78 -17 -138 -82 -155 -167 -4 -20 -31 -144 -60 -276
-28 -132 -54 -251 -56 -265 -23 -120 -56 -173 -127 -205 -29 -13 -119 -38
-202 -55 -82 -17 -213 -45 -290 -62 -77 -16 -153 -32 -170 -35 -124 -21 -199
-162 -150 -281 29 -68 74 -103 161 -123 27 -6 56 -12 64 -14 8 -2 60 -13 115
-25 55 -11 111 -23 125 -26 62 -13 214 -46 234 -50 11 -3 34 -8 51 -11 89 -16
163 -90 178 -178 3 -17 19 -95 37 -175 17 -80 33 -161 36 -180 3 -19 8 -38 10
-41 1 -3 13 -52 25 -110 25 -123 41 -164 76 -201 89 -93 267 -67 322 47 15 31
96 375 127 545 11 56 33 147 43 172 12 31 54 76 89 96 19 11 322 81 457 107
138 25 250 56 288 78 125 74 117 277 -13 344 -28 14 -170 49 -373 93 -330 71
-375 84 -409 124 -40 46 -46 65 -93 285 -2 9 -11 50 -20 91 -9 41 -19 89 -21
105 -3 17 -9 44 -14 60 -5 17 -12 46 -15 65 -3 19 -10 50 -15 68 -4 17 -7 32
-5 32 8 0 -34 88 -52 110 -41 49 -127 74 -198 58z"/>
<path d="M3435 6701 c-170 -43 -266 -220 -208 -386 22 -62 93 -137 155 -165
33 -14 75 -22 145 -25 108 -5 232 -14 260 -19 10 -2 38 -7 63 -11 81 -12 264
-62 366 -100 512 -191 933 -590 1154 -1095 48 -110 98 -256 115 -340 2 -8 8
-35 13 -60 6 -25 13 -64 17 -87 3 -23 8 -57 11 -75 11 -60 13 -412 3 -478 -21
-148 -25 -171 -45 -256 -20 -88 -64 -227 -75 -239 -5 -5 -9 -15 -9 -23 0 -19
-109 -246 -145 -302 -16 -25 -35 -55 -42 -68 -54 -99 -290 -364 -408 -458 -27
-21 -52 -42 -55 -46 -19 -24 -256 -170 -355 -219 -112 -54 -350 -141 -420
-152 -16 -3 -50 -10 -75 -15 -25 -6 -64 -13 -87 -16 -24 -3 -62 -9 -85 -12
-67 -10 -335 -12 -423 -3 -67 7 -137 18 -225 34 -131 25 -338 97 -477 166
-102 50 -335 194 -353 217 -3 4 -27 25 -55 46 -70 55 -221 209 -288 293 -267
335 -425 750 -443 1168 -3 66 -10 143 -15 172 -24 125 -145 226 -272 226 -99
-1 -160 -26 -223 -95 -76 -83 -88 -151 -70 -403 8 -123 17 -180 62 -400 24
-118 109 -360 179 -510 159 -341 451 -713 719 -918 l46 -35 -149 -150 c-155
-156 -198 -210 -231 -287 -48 -113 -52 -148 -51 -530 0 -198 3 -373 6 -390 19
-100 84 -211 156 -266 56 -43 131 -77 195 -88 40 -7 584 -10 1719 -8 l1660 2
57 23 c131 53 225 151 267 277 22 67 22 80 22 435 -1 201 -4 379 -6 395 -28
157 -79 240 -270 431 l-153 154 67 56 c72 61 226 209 279 268 202 225 385 526
495 816 36 93 100 305 110 365 3 17 13 70 22 120 37 203 47 412 31 654 -4 63
-8 117 -10 120 -2 3 -6 29 -10 56 -3 28 -8 64 -12 80 -83 453 -270 852 -570
1225 -27 34 -252 260 -299 301 -174 153 -438 319 -662 418 -160 70 -445 157
-578 176 -22 3 -62 10 -90 15 -115 20 -399 34 -450 21z m-641 -5146 c68 -18
137 -36 152 -39 16 -2 54 -9 84 -15 84 -15 118 -20 200 -29 95 -9 441 -9 540
0 216 21 479 85 694 171 l135 53 180 -180 180 -181 0 -227 c-1 -164 -4 -228
-12 -230 -7 -2 -662 -4 -1457 -4 l-1445 1 -2 230 -2 230 180 181 180 180 135
-53 c74 -30 190 -69 258 -88z"/>
</g>
</svg>
